<?xml version="1.0" standalone="yes"?>

<svg version="1.1" viewBox="0.0 0.0 351.9711286089239 226.3517060367454" fill="none" stroke="none" stroke-linecap="square" stroke-miterlimit="10" xmlns="http://www.w3.org/2000/svg" xmlns:xlink="http://www.w3.org/1999/xlink"><clipPath id="p.0"><path d="m0 0l351.97113 0l0 226.3517l-351.97113 0l0 -226.3517z" clip-rule="nonzero"></path></clipPath><g clip-path="url(#p.0)"><path fill="#000000" fill-opacity="0.0" d="m0 0l351.97113 0l0 226.3517l-351.97113 0z" fill-rule="evenodd"></path><path fill="#cfe2f3" d="m188.53964 41.825188l0 0c0 -22.387102 18.14833 -40.535435 40.53543 -40.535435l0 0c10.750671 0 21.06102 4.270685 28.662872 11.872554c7.6018677 7.6018686 11.872559 17.912216 11.872559 28.66288l0 0c0 22.3871 -18.14833 40.53543 -40.53543 40.53543l0 0c-22.3871 0 -40.53543 -18.14833 -40.53543 -40.53543z" fill-rule="evenodd"></path><path stroke="#000000" stroke-width="2.0" stroke-linejoin="round" stroke-linecap="butt" d="m188.53964 41.825188l0 0c0 -22.387102 18.14833 -40.535435 40.53543 -40.535435l0 0c10.750671 0 21.06102 4.270685 28.662872 11.872554c7.6018677 7.6018686 11.872559 17.912216 11.872559 28.66288l0 0c0 22.3871 -18.14833 40.53543 -40.53543 40.53543l0 0c-22.3871 0 -40.53543 -18.14833 -40.53543 -40.53543z" fill-rule="evenodd"></path><path fill="#000000" d="m222.82204 48.745186l5.234375 -13.59375l1.9375 0l5.5625 13.59375l-2.046875 0l-1.59375 -4.125l-5.6875 0l-1.484375 4.125l-1.921875 0zm3.921875 -5.578125l4.609375 0l-1.40625 -3.78125q-0.65625 -1.703125 -0.96875 -2.8125q-0.265625 1.3125 -0.734375 2.59375l-1.5 4.0z" fill-rule="nonzero"></path><path fill="#cfe2f3" d="m269.6105 177.50235l0 0c0 -22.3871 18.148346 -40.53543 40.53543 -40.53543l0 0c10.750671 0 21.061005 4.270691 28.662872 11.872559c7.6018677 7.6018677 11.872559 17.912216 11.872559 28.662872l0 0c0 22.3871 -18.148315 40.53543 -40.53543 40.53543l0 0c-22.387085 0 -40.53543 -18.14833 -40.53543 -40.53543z" fill-rule="evenodd"></path><path stroke="#000000" stroke-width="2.0" stroke-linejoin="round" stroke-linecap="butt" d="m269.6105 177.50235l0 0c0 -22.3871 18.148346 -40.53543 40.53543 -40.53543l0 0c10.750671 0 21.061005 4.270691 28.662872 11.872559c7.6018677 7.6018677 11.872559 17.912216 11.872559 28.662872l0 0c0 22.3871 -18.148315 40.53543 -40.53543 40.53543l0 0c-22.387085 0 -40.53543 -18.14833 -40.53543 -40.53543z" fill-rule="evenodd"></path><path fill="#000000" d="m314.58133 179.65672l1.796875 0.453125q-0.5625 2.21875 -2.03125 3.390625q-1.46875 1.15625 -3.59375 1.15625q-2.203125 0 -3.578125 -0.890625q-1.375 -0.90625 -2.09375 -2.59375q-0.71875 -1.703125 -0.71875 -3.65625q0 -2.125 0.796875 -3.703125q0.8125 -1.578125 2.3125 -2.390625q1.5 -0.828125 3.296875 -0.828125q2.046875 0 3.4375 1.046875q1.390625 1.03125 1.9375 2.90625l-1.765625 0.421875q-0.46875 -1.484375 -1.375 -2.15625q-0.90625 -0.6875 -2.265625 -0.6875q-1.5625 0 -2.625 0.75q-1.046875 0.75 -1.484375 2.03125q-0.421875 1.265625 -0.421875 2.609375q0 1.734375 0.5 3.03125q0.515625 1.28125 1.578125 1.921875q1.078125 0.640625 2.3125 0.640625q1.515625 0 2.5625 -0.859375q1.046875 -0.875 1.421875 -2.59375z" fill-rule="nonzero"></path><path fill="#cfe2f3" d="m107.46878 177.50235l0 0c0 -22.3871 18.14833 -40.53543 40.53543 -40.53543l0 0c10.750671 0 21.061005 4.270691 28.662872 11.872559c7.6018677 7.6018677 11.872559 17.912216 11.872559 28.662872l0 0c0 22.3871 -18.14833 40.53543 -40.53543 40.53543l0 0c-22.3871 0 -40.53543 -18.14833 -40.53543 -40.53543z" fill-rule="evenodd"></path><path stroke="#000000" stroke-width="2.0" stroke-linejoin="round" stroke-linecap="butt" d="m107.46878 177.50235l0 0c0 -22.3871 18.14833 -40.53543 40.53543 -40.53543l0 0c10.750671 0 21.061005 4.270691 28.662872 11.872559c7.6018677 7.6018677 11.872559 17.912216 11.872559 28.662872l0 0c0 22.3871 -18.14833 40.53543 -40.53543 40.53543l0 0c-22.3871 0 -40.53543 -18.14833 -40.53543 -40.53543z" fill-rule="evenodd"></path><path fill="#000000" d="m143.17305 184.42235l0 -13.59375l5.109375 0q1.546875 0 2.484375 0.40625q0.953125 0.40625 1.484375 1.265625q0.53125 0.859375 0.53125 1.796875q0 0.875 -0.46875 1.65625q-0.46875 0.765625 -1.4375 1.234375q1.234375 0.359375 1.890625 1.234375q0.671875 0.875 0.671875 2.0625q0 0.953125 -0.40625 1.78125q-0.390625 0.8125 -0.984375 1.265625q-0.59375 0.4375 -1.5 0.671875q-0.890625 0.21875 -2.1875 0.21875l-5.1875 0zm1.796875 -7.890625l2.9375 0q1.203125 0 1.71875 -0.15625q0.6875 -0.203125 1.03125 -0.671875q0.359375 -0.46875 0.359375 -1.1875q0 -0.671875 -0.328125 -1.1875q-0.328125 -0.515625 -0.9375 -0.703125q-0.59375 -0.203125 -2.0625 -0.203125l-2.71875 0l0 4.109375zm0 6.28125l3.390625 0q0.875 0 1.21875 -0.0625q0.625 -0.109375 1.046875 -0.359375q0.421875 -0.265625 0.6875 -0.765625q0.265625 -0.5 0.265625 -1.140625q0 -0.765625 -0.390625 -1.328125q-0.390625 -0.5625 -1.078125 -0.78125q-0.6875 -0.234375 -1.984375 -0.234375l-3.15625 0l0 4.671875z" fill-rule="nonzero"></path><path fill="#000000" fill-opacity="0.0" d="m200.4122 70.48807l-52.409454 66.48819" fill-rule="evenodd"></path><path stroke="#000000" stroke-width="2.0" stroke-linejoin="round" stroke-linecap="butt" d="m200.4122 70.48807l-52.409454 66.48819" fill-rule="evenodd"></path><path fill="#000000" fill-opacity="0.0" d="m257.73795 70.48807l52.409454 66.48819" fill-rule="evenodd"></path><path stroke="#000000" stroke-width="2.0" stroke-linejoin="round" stroke-linecap="butt" d="m257.73795 70.48807l52.409454 66.48819" fill-rule="evenodd"></path><path fill="#f9cb9c" d="m0.59476113 197.79631l0 0c0 -15.594437 13.396205 -28.236221 29.92126 -28.236221c16.525055 0 29.92126 12.641785 29.92126 28.236221c0 15.594437 -13.396206 28.236221 -29.92126 28.236221c-16.525055 0 -29.92126 -12.641785 -29.92126 -28.236221z" fill-rule="evenodd"></path><path fill="#c7a27c" d="m17.813337 189.3516c0 -1.6244202 1.3954391 -2.941269 3.1167984 -2.941269c1.7213593 0 3.1167984 1.3168488 3.1167984 2.941269c0 1.6244202 -1.3954391 2.941269 -3.1167984 2.941269c-1.7213593 0 -3.1167984 -1.3168488 -3.1167984 -2.941269m19.17177 0c0 -1.6244202 1.3954391 -2.941269 3.1167984 -2.941269c1.7213593 0 3.1167984 1.3168488 3.1167984 2.941269c0 1.6244202 -1.3954391 2.941269 -3.1167984 2.941269c-1.7213593 0 -3.1167984 -1.3168488 -3.1167984 -2.941269" fill-rule="evenodd"></path><path fill="#000000" fill-opacity="0.0" d="m14.298502 210.11032q16.21752 10.510651 32.397163 0" fill-rule="evenodd"></path><path fill="#000000" fill-opacity="0.0" d="m0.59476113 197.79631l0 0c0 -15.594437 13.396205 -28.236221 29.92126 -28.236221c16.525055 0 29.92126 12.641785 29.92126 28.236221c0 15.594437 -13.396206 28.236221 -29.92126 28.236221c-16.525055 0 -29.92126 -12.641785 -29.92126 -28.236221z" fill-rule="evenodd"></path><path stroke="#000000" stroke-width="1.0" stroke-linejoin="round" stroke-linecap="butt" d="m17.813337 189.3516c0 -1.6244202 1.3954391 -2.941269 3.1167984 -2.941269c1.7213593 0 3.1167984 1.3168488 3.1167984 2.941269c0 1.6244202 -1.3954391 2.941269 -3.1167984 2.941269c-1.7213593 0 -3.1167984 -1.3168488 -3.1167984 -2.941269m19.17177 0c0 -1.6244202 1.3954391 -2.941269 3.1167984 -2.941269c1.7213593 0 3.1167984 1.3168488 3.1167984 2.941269c0 1.6244202 -1.3954391 2.941269 -3.1167984 2.941269c-1.7213593 0 -3.1167984 -1.3168488 -3.1167984 -2.941269" fill-rule="evenodd"></path><path stroke="#000000" stroke-width="1.0" stroke-linejoin="round" stroke-linecap="butt" d="m14.298502 210.11032q16.21752 10.510651 32.397163 0" fill-rule="evenodd"></path><path stroke="#000000" stroke-width="1.0" stroke-linejoin="round" stroke-linecap="butt" d="m0.59476113 197.79631l0 0c0 -15.594437 13.396205 -28.236221 29.92126 -28.236221c16.525055 0 29.92126 12.641785 29.92126 28.236221c0 15.594437 -13.396206 28.236221 -29.92126 28.236221c-16.525055 0 -29.92126 -12.641785 -29.92126 -28.236221z" fill-rule="evenodd"></path><path fill="#f4cccc" d="m252.184 6.1348977l27.559036 0l0 29.044527l-4.5932617 4.5932693l-22.965775 0z" fill-rule="evenodd"></path><path fill="#c3a3a3" d="m275.14978 39.772694l0.91867065 -3.674614l3.674591 -0.9186554z" fill-rule="evenodd"></path><path fill="#000000" fill-opacity="0.0" d="m275.14978 39.772694l0.91867065 -3.674614l3.674591 -0.9186554l-4.5932617 4.5932693l-22.965775 0l0 -33.637794l27.559036 0l0 29.044527" fill-rule="evenodd"></path><path stroke="#000000" stroke-width="1.0" stroke-linejoin="round" stroke-linecap="butt" d="m275.14978 39.772694l0.91867065 -3.674614l3.674591 -0.9186554l-4.5932617 4.5932693l-22.965775 0l0 -33.637794l27.559036 0l0 29.044527" fill-rule="evenodd"></path><path fill="#ea9999" d="m173.11707 187.26088l16.661423 0l0 18.293915l-2.7769623 2.776947l-13.88446 0z" fill-rule="evenodd"></path><path fill="#bb7a7a" d="m187.00153 208.33174l0.5553894 -2.2215576l2.2215729 -0.5553894z" fill-rule="evenodd"></path><path fill="#000000" fill-opacity="0.0" d="m187.00153 208.33174l0.5553894 -2.2215576l2.2215729 -0.5553894l-2.7769623 2.776947l-13.88446 0l0 -21.070862l16.661423 0l0 18.293915" fill-rule="evenodd"></path><path stroke="#000000" stroke-width="1.0" stroke-linejoin="round" stroke-linecap="butt" d="m187.00153 208.33174l0.5553894 -2.2215576l2.2215729 -0.5553894l-2.7769623 2.776947l-13.88446 0l0 -21.070862l16.661423 0l0 18.293915" fill-rule="evenodd"></path></g></svg>

